<?xml version="1.0" encoding="UTF-8" standalone="no"?>
<!-- Created with Inkscape (http://www.inkscape.org/) -->

<svg
   width="1000"
   height="1000"
   viewBox="0 0 264.58333 264.58333"
   version="1.1"
   id="svg1"
   xml:space="preserve"
   inkscape:version="1.3.2 (091e20e, 2023-11-25, custom)"
   sodipodi:docname="FileType_Base64_icon.svg"
   inkscape:export-filename="FileType_Base64_blazor.png"
   inkscape:export-xdpi="12.288"
   inkscape:export-ydpi="12.288"
   xmlns:inkscape="http://www.inkscape.org/namespaces/inkscape"
   xmlns:sodipodi="http://sodipodi.sourceforge.net/DTD/sodipodi-0.dtd"
   xmlns:xlink="http://www.w3.org/1999/xlink"
   xmlns="http://www.w3.org/2000/svg"
   xmlns:svg="http://www.w3.org/2000/svg"><sodipodi:namedview
     id="namedview1"
     pagecolor="#505050"
     bordercolor="#ffffff"
     borderopacity="1"
     inkscape:showpageshadow="false"
     inkscape:pageopacity="0"
     inkscape:pagecheckerboard="true"
     inkscape:deskcolor="#d1d1d1"
     inkscape:document-units="px"
     showborder="true"
     labelstyle="default"
     inkscape:zoom="1"
     inkscape:cx="587"
     inkscape:cy="486.5"
     inkscape:window-width="2560"
     inkscape:window-height="1369"
     inkscape:window-x="2552"
     inkscape:window-y="-8"
     inkscape:window-maximized="1"
     inkscape:current-layer="layer1" /><defs
     id="defs1"><linearGradient
       id="linearGradient10"
       inkscape:collect="always"><stop
         style="stop-color:#e8c87b;stop-opacity:1;"
         offset="0"
         id="stop10" /><stop
         style="stop-color:#e3a63a;stop-opacity:1;"
         offset="0.34167907"
         id="stop13" /><stop
         style="stop-color:#e39f2d;stop-opacity:1;"
         offset="0.74683028"
         id="stop12" /><stop
         style="stop-color:#e9b55c;stop-opacity:1;"
         offset="1"
         id="stop11" /></linearGradient><linearGradient
       id="linearGradient8"
       inkscape:collect="always"><stop
         style="stop-color:#000000;stop-opacity:1;"
         offset="0"
         id="stop8" /><stop
         style="stop-color:#000000;stop-opacity:0;"
         offset="1"
         id="stop9" /></linearGradient><linearGradient
       inkscape:collect="always"
       xlink:href="#linearGradient8"
       id="linearGradient9"
       x1="196.09398"
       y1="45.862057"
       x2="202.14166"
       y2="36.469349"
       gradientUnits="userSpaceOnUse" /><linearGradient
       inkscape:collect="always"
       xlink:href="#linearGradient10"
       id="linearGradient11"
       x1="186.38086"
       y1="79.078636"
       x2="209.96754"
       y2="48.519257"
       gradientUnits="userSpaceOnUse" /></defs><g
     inkscape:label="Layer 1"
     inkscape:groupmode="layer"
     id="layer1"><rect
       style="fill:#464646;stroke-width:0.79374999;fill-opacity:1;stroke:none;stroke-dasharray:none"
       id="rect1"
       width="205.05208"
       height="261.9375"
       x="32.543751"
       y="1.322915"
       inkscape:label="Page" /><path
       id="path6"
       style="fill:#e19f29;stroke-width:0.2032;fill-opacity:1"
       d="M 134.44606 1.3229166 A 56.807147 32.793218 60 0 1 149.07462 8.2920002 L 149.0772 8.2248209 L 231.66338 61.736283 C 231.66338 61.736283 231.64334 61.799488 231.64322 61.799845 A 12.738572 41.658576 60 0 1 237.56741 64.436376 A 12.738572 41.658576 60 0 1 237.59583 64.550064 L 237.59583 1.3229166 L 134.44606 1.3229166 z M 152.91108 11.169344 A 56.807147 32.793218 60 0 1 154.00352 12.039575 A 56.807147 32.793218 60 0 0 152.91108 11.169344 z M 157.30047 14.969112 A 56.807147 32.793218 60 0 1 158.82183 16.429488 A 56.807147 32.793218 60 0 0 157.30047 14.969112 z M 161.72294 19.435506 A 56.807147 32.793218 60 0 1 163.48924 21.445719 A 56.807147 32.793218 60 0 0 161.72294 19.435506 z M 165.98935 24.439852 A 56.807147 32.793218 60 0 1 168.04297 27.193689 A 56.807147 32.793218 60 0 0 165.98935 24.439852 z M 170.00461 29.902567 A 56.807147 32.793218 60 0 1 173.68294 35.724951 A 56.807147 32.793218 60 0 0 170.00461 29.902567 z M 173.68294 35.724951 A 56.807147 32.793218 60 0 1 176.90341 41.817602 A 56.807147 32.793218 60 0 0 173.68294 35.724951 z M 177.82739 43.859855 A 56.807147 32.793218 60 0 1 179.65983 48.066316 A 56.807147 32.793218 60 0 0 177.82739 43.859855 z M 180.57347 50.510095 A 56.807147 32.793218 60 0 1 181.91551 54.392545 A 56.807147 32.793218 60 0 0 180.57347 50.510095 z M 182.66792 56.939676 A 56.807147 32.793218 60 0 1 183.6353 60.722391 A 56.807147 32.793218 60 0 0 182.66792 56.939676 z M 228.62273 61.827233 A 12.738572 41.658576 60 0 0 228.22689 61.851521 A 12.738572 41.658576 60 0 1 228.62273 61.827233 z M 224.96094 62.288704 A 12.738572 41.658576 60 0 0 224.20957 62.425129 A 12.738572 41.658576 60 0 1 224.96094 62.288704 z M 220.75396 63.215262 A 12.738572 41.658576 60 0 0 219.66256 63.514985 A 12.738572 41.658576 60 0 1 220.75396 63.215262 z M 184.1748 63.223014 A 56.807147 32.793218 60 0 1 184.7882 66.994876 A 56.807147 32.793218 60 0 0 184.1748 63.223014 z M 216.09843 64.605875 A 12.738572 41.658576 60 0 0 214.66855 65.108687 A 12.738572 41.658576 60 0 1 216.09843 64.605875 z M 211.09047 66.443489 A 12.738572 41.658576 60 0 0 209.32365 67.185562 A 12.738572 41.658576 60 0 1 211.09047 66.443489 z M 205.8448 68.692964 A 12.738572 41.658576 60 0 0 203.5607 69.797289 A 12.738572 41.658576 60 0 1 205.8448 68.692964 z M 185.09568 69.312564 A 56.807147 32.793218 60 0 1 185.34476 73.25806 A 56.807147 32.793218 60 0 0 185.09568 69.312564 z M 200.48388 71.307274 A 12.738572 41.658576 60 0 0 195.1209 74.233711 A 12.738572 41.658576 60 0 1 200.48388 71.307274 z M 185.42589 75.133397 A 56.807147 32.793218 60 0 1 185.16492 80.611616 A 56.807147 32.793218 60 0 0 185.42589 75.133397 z "
       inkscape:label="corner-flip-bg" /><path
       id="path13"
       style="fill:#000000;fill-opacity:0.24607331;stroke:none;stroke-width:0.264583px;stroke-linecap:butt;stroke-linejoin:miter;stroke-opacity:1"
       d="m 149.07342,8.2248209 -0.008,0.067179 a 55.201733,33.746932 64.330591 0 1 22.70461,27.4329511 55.201733,33.746932 64.330591 0 1 8.36706,44.886665 12.364446,42.91909 60.774159 0 1 10.39857,-6.377905 12.364446,42.91909 60.774159 0 1 37.38517,-12.433866 c 1.5e-4,-3.57e-4 0.0246,-0.06356 0.0246,-0.06356 z"
       inkscape:transform-center-x="-39.544116"
       inkscape:transform-center-y="36.247916"
       inkscape:label="corner-flip" /><path
       id="path7"
       style="display:inline;fill:url(#linearGradient11);fill-opacity:1;stroke:none;stroke-width:0.264583px;stroke-linecap:butt;stroke-linejoin:miter;stroke-opacity:1"
       d="m 149.0772,8.2248209 -0.003,0.067179 a 56.807147,32.793218 60 0 1 24.60832,27.4329511 56.807147,32.793218 60 0 1 11.48198,44.886665 12.738572,41.658576 60 0 1 9.95598,-6.377905 12.738572,41.658576 60 0 1 36.52232,-12.433866 c 1.2e-4,-3.57e-4 0.0202,-0.06356 0.0202,-0.06356 z"
       inkscape:label="corner-flip-gradient" /><path
       id="path8"
       style="fill:url(#linearGradient9);stroke-width:0.79374999;fill-opacity:1;stroke:none;stroke-opacity:1;stroke-dasharray:none"
       d="M 134.44606 1.3229166 A 56.807147 32.793218 60 0 1 149.07462 8.2920002 L 149.0772 8.2248209 L 231.66338 61.736283 C 231.66338 61.736283 231.64334 61.799488 231.64322 61.799845 A 12.738572 41.658576 60 0 1 237.56741 64.436376 A 12.738572 41.658576 60 0 1 237.59583 64.550064 L 237.59583 1.3229166 L 134.44606 1.3229166 z M 152.91108 11.169344 A 56.807147 32.793218 60 0 1 154.00352 12.039575 A 56.807147 32.793218 60 0 0 152.91108 11.169344 z M 157.30047 14.969112 A 56.807147 32.793218 60 0 1 158.82183 16.429488 A 56.807147 32.793218 60 0 0 157.30047 14.969112 z M 161.72294 19.435506 A 56.807147 32.793218 60 0 1 163.48924 21.445719 A 56.807147 32.793218 60 0 0 161.72294 19.435506 z M 165.98935 24.439852 A 56.807147 32.793218 60 0 1 168.04297 27.193689 A 56.807147 32.793218 60 0 0 165.98935 24.439852 z M 170.00461 29.902567 A 56.807147 32.793218 60 0 1 173.68294 35.724951 A 56.807147 32.793218 60 0 0 170.00461 29.902567 z M 173.68294 35.724951 A 56.807147 32.793218 60 0 1 176.90341 41.817602 A 56.807147 32.793218 60 0 0 173.68294 35.724951 z M 177.82739 43.859855 A 56.807147 32.793218 60 0 1 179.65983 48.066316 A 56.807147 32.793218 60 0 0 177.82739 43.859855 z M 180.57347 50.510095 A 56.807147 32.793218 60 0 1 181.91551 54.392545 A 56.807147 32.793218 60 0 0 180.57347 50.510095 z M 182.66792 56.939676 A 56.807147 32.793218 60 0 1 183.6353 60.722391 A 56.807147 32.793218 60 0 0 182.66792 56.939676 z M 228.62273 61.827233 A 12.738572 41.658576 60 0 0 228.22689 61.851521 A 12.738572 41.658576 60 0 1 228.62273 61.827233 z M 224.96094 62.288704 A 12.738572 41.658576 60 0 0 224.20957 62.425129 A 12.738572 41.658576 60 0 1 224.96094 62.288704 z M 220.75396 63.215262 A 12.738572 41.658576 60 0 0 219.66256 63.514985 A 12.738572 41.658576 60 0 1 220.75396 63.215262 z M 184.1748 63.223014 A 56.807147 32.793218 60 0 1 184.7882 66.994876 A 56.807147 32.793218 60 0 0 184.1748 63.223014 z M 216.09843 64.605875 A 12.738572 41.658576 60 0 0 214.66855 65.108687 A 12.738572 41.658576 60 0 1 216.09843 64.605875 z M 211.09047 66.443489 A 12.738572 41.658576 60 0 0 209.32365 67.185562 A 12.738572 41.658576 60 0 1 211.09047 66.443489 z M 205.8448 68.692964 A 12.738572 41.658576 60 0 0 203.5607 69.797289 A 12.738572 41.658576 60 0 1 205.8448 68.692964 z M 185.09568 69.312564 A 56.807147 32.793218 60 0 1 185.34476 73.25806 A 56.807147 32.793218 60 0 0 185.09568 69.312564 z M 200.48388 71.307274 A 12.738572 41.658576 60 0 0 195.1209 74.233711 A 12.738572 41.658576 60 0 1 200.48388 71.307274 z M 185.42589 75.133397 A 56.807147 32.793218 60 0 1 185.16492 80.611616 A 56.807147 32.793218 60 0 0 185.42589 75.133397 z "
       inkscape:label="corner-flip-shadow" /><path
       id="rect13"
       style="display:inline;fill:#e19f29;fill-opacity:1;stroke:none;stroke-width:0.527525;stroke-dasharray:none;stroke-opacity:1"
       inkscape:label="file-type-box"
       d="M 25.231018 172.24271 C 20.267222 172.24271 16.270841 176.23909 16.270841 181.20289 L 16.270841 228.90127 C 16.270841 233.86507 20.267222 237.86145 25.231018 237.86145 L 244.90856 237.86145 C 249.87236 237.86145 253.86874 233.86507 253.86874 228.90127 L 253.86874 181.20289 C 253.86874 176.23909 249.87236 172.24271 244.90856 172.24271 L 25.231018 172.24271 z M 117.50704 180.57812 C 119.9849 180.57812 122.33076 181.09202 124.54382 182.12015 C 126.77579 183.14828 128.75242 184.6348 130.47369 186.57931 L 125.30966 193.58611 C 124.00453 192.11097 122.68977 190.98255 121.36572 190.20027 C 120.04167 189.39565 118.76493 188.99311 117.53546 188.99311 C 115.87094 188.99311 114.57519 189.41761 113.64836 190.26694 C 112.72152 191.09391 112.25826 192.30101 112.25826 193.8879 C 112.25826 194.93838 112.57995 195.93298 113.22306 196.8717 C 113.88509 197.81043 114.82112 198.65995 116.03168 199.41987 L 121.47941 202.73853 C 124.31665 204.48188 126.50141 206.51601 128.03353 208.84048 C 129.58456 211.16495 130.36 213.6573 130.36 216.31703 C 130.36 220.54129 129.07376 223.80449 126.50132 226.10661 C 123.92888 228.38637 120.26878 229.52604 115.52111 229.52604 C 113.2324 229.52604 111.01013 229.30229 108.85382 228.85528 C 106.69751 228.38592 104.76789 227.73818 103.06554 226.91121 L 104.08719 217.85905 C 106.16783 218.88718 108.22952 219.6805 110.27234 220.23927 C 112.33407 220.79803 114.23465 221.07746 115.97483 221.07746 C 117.99874 221.07746 119.55014 220.65296 120.62829 219.80363 C 121.70645 218.95431 122.24525 217.73597 122.24525 216.14908 C 122.24525 214.07047 121.13913 212.41639 118.92607 211.18711 L 113.1378 207.86845 C 110.28163 206.2145 108.06835 204.16912 106.49841 201.7329 C 104.92846 199.29669 104.14351 196.60358 104.14351 193.65329 C 104.14351 189.49608 105.30719 186.27732 107.63374 183.99755 C 109.96028 181.71779 113.25116 180.57812 117.50704 180.57812 z M 195.81544 181.04734 L 196.38284 189.49592 C 184.88823 190.0535 179.13043 195.70982 179.10586 206.46026 L 179.84173 206.46026 C 180.35244 203.97934 181.36452 202.06832 182.87772 200.72728 C 184.40984 199.36389 186.28241 198.68193 188.49547 198.68193 C 192.01366 198.68193 194.72771 200.0009 196.63812 202.63827 C 198.54854 205.27565 199.50358 209.00831 199.50358 213.83604 C 199.50358 218.79788 198.26488 222.65313 195.78701 225.40226 C 193.32806 228.15139 189.82855 229.52604 185.28895 229.52604 C 180.84392 229.52604 177.37344 228.02879 174.87666 225.03381 C 172.37988 222.03882 171.13115 217.88115 171.13115 212.5617 L 171.13115 209.37688 C 171.13115 200.34723 173.16483 193.48572 177.23156 188.79209 C 181.29828 184.09846 187.49284 181.51671 195.81544 181.04734 z M 35.851041 181.24888 L 43.34154 181.24888 L 48.306612 181.24888 C 52.543571 181.24888 55.815954 182.27667 58.123583 184.33293 C 60.450128 186.36684 61.613293 189.27246 61.613293 193.04971 C 61.613293 196.29055 60.714775 198.79415 58.91785 200.55985 C 57.29609 202.13326 55.03263 202.95774 52.193713 203.11111 L 52.193713 204.24748 L 53.498543 204.24748 C 56.997817 204.24748 59.693371 205.25331 61.584871 207.26487 C 63.495285 209.27642 64.450329 212.11512 64.450329 215.78062 C 64.450329 219.93784 63.344206 223.15609 61.131152 225.43585 C 58.937012 227.71561 55.815708 228.85528 51.767899 228.85528 L 43.34154 228.85528 L 35.851041 228.85528 L 35.851041 181.24888 z M 78.26809 181.24888 L 87.46081 181.24888 L 99.093175 228.85528 L 91.007364 228.85528 L 89.029707 219.83722 L 76.698677 219.83722 L 74.721536 228.85528 L 66.635208 228.85528 L 78.26809 181.24888 z M 137.99209 181.24888 L 165.6271 181.24888 L 165.6271 189.39567 L 145.48259 189.39567 L 145.48259 200.9283 L 160.51992 200.9283 L 160.51992 209.10868 L 145.48259 209.10868 L 145.48259 220.70849 L 165.6271 220.70849 L 165.6271 228.85528 L 145.48259 228.85528 L 137.99209 228.85528 L 137.99209 209.10868 L 137.99209 200.9283 L 137.99209 189.39567 L 137.99209 181.24888 z M 222.93936 181.24888 L 230.40144 181.24888 L 230.40144 211.18711 L 234.28854 211.18711 L 234.28854 219.26723 L 230.40144 219.26723 L 230.40144 228.85528 L 222.93936 228.85528 L 222.93936 219.26723 L 203.64597 219.26723 L 208.61155 183.93089 L 216.24365 183.93089 L 212.36998 211.18711 L 222.93936 211.18711 L 222.93936 181.24888 z M 43.34154 189.39567 L 43.34154 199.62089 L 48.4203 199.62089 C 50.179394 199.62089 51.503145 199.17391 52.39215 198.27988 C 53.30007 197.36351 53.754341 196.02257 53.754341 194.25687 C 53.754341 192.64763 53.271549 191.44053 52.306884 190.63591 C 51.361134 189.80893 49.933323 189.39567 48.022908 189.39567 L 43.34154 189.39567 z M 82.60891 192.88228 L 78.492366 211.65685 L 87.236018 211.65685 L 83.119473 192.88228 L 82.60891 192.88228 z M 185.45948 207.09692 C 183.41666 207.09692 181.83725 207.7232 180.72127 208.97484 C 179.60528 210.22647 179.04695 211.99191 179.04695 214.27167 C 179.04695 216.41733 179.59577 218.09389 180.69284 219.30082 C 181.80883 220.48541 183.35972 221.07746 185.34579 221.07746 C 187.33186 221.07746 188.86425 220.45169 189.94241 219.20005 C 191.03948 217.92607 191.58779 216.13816 191.58779 213.83604 C 191.58779 211.66803 191.05849 210.00271 189.99925 208.84048 C 188.94001 207.67825 187.42664 207.09692 185.45948 207.09692 z M 43.34154 207.80127 L 43.34154 220.70849 L 50.122521 220.70849 C 52.165341 220.70849 53.754256 220.13891 54.889155 218.99903 C 56.024055 217.85915 56.591377 216.26075 56.591377 214.20449 C 56.591377 212.17059 55.995534 210.59518 54.803889 209.47765 C 53.612245 208.36012 51.919269 207.80127 49.72513 207.80127 L 43.34154 207.80127 z " /><text
       xml:space="preserve"
       style="font-weight:bold;font-size:40.9561px;line-height:1;font-family:'Cascadia Mono';-inkscape-font-specification:'Cascadia Mono Bold';display:inline;fill:#464646;fill-opacity:1;stroke-width:0.319969"
       x="218.69702"
       y="32.067333"
       id="text1"
       transform="scale(0.8828135,1.1327421)"
       inkscape:label="csharp"><tspan
         sodipodi:role="line"
         id="tspan1"
         style="fill:#464646;fill-opacity:1;stroke-width:0.319969"
         x="0"
         y="0">C#</tspan></text><path
       d="m 233.08743,15.091533 c -0.85799,5.950617 -3.59595,11.371384 -7.72687,15.298091 -4.13093,3.926696 -9.38683,6.104697 -14.8327,6.146417 -1.10312,0.04691 -2.20766,-0.02733 -3.29751,-0.221401 a 10.106972,11.18177 0 0 1 -8.40438,-10.540565 9.8151658,10.858932 0 0 1 2.87905,-7.590702 9.8126955,10.856199 0 0 1 13.76911,-0.107647 9.8150361,10.858789 0 0 1 2.9758,7.544811 c 0.0412,1.799775 -0.66346,3.378437 -2.1117,3.424041 -1.54732,0 -2.27268,-1.221579 -2.27268,-2.86785 v -4.574537 a 2.5328874,2.8022403 0 0 0 -2.51273,-2.804544 h -3.46591 a 6.0319598,6.6734118 0 0 0 -5.08697,3.015601 6.0336502,6.675282 0 0 0 4.10752,10.253104 6.0327399,6.6742749 0 0 0 5.4356,-2.145197 l 0.1212,-0.199972 0.12132,0.221988 a 4.2678593,4.7217129 0 0 0 3.63926,1.917457 4.8103793,5.3219257 0 0 0 4.45615,-5.563485 13.087062,14.478769 0 0 0 -0.35903,-3.535815 c -0.64278,-3.270668 -2.35708,-6.162392 -4.81246,-8.117399 a 12.243503,13.545504 0 0 0 -16.28549,1.97356 12.246364,13.54867 0 0 0 -3.11052,9.077571 12.399418,13.718 0 0 0 3.57255,9.469902 12.396688,13.714979 0 0 0 8.51075,4.077768 c 0,0 0.90767,0.09138 1.93094,0.06527 a 26.129909,28.908622 0 0 0 14.0141,-4.626037 c 0.0594,-0.04569 0.11886,0.04558 0.0793,0.112216 a 20.569079,22.756441 0 0 1 -16.02397,7.250314 14.458316,15.995845 0 0 1 -10.52804,-4.729049 14.462217,16.000161 0 0 1 -4.18919,-11.686591 14.967286,16.55894 0 0 1 6.01077,-13.26022 14.655844,16.214379 0 0 1 8.64716,-3.1583085 h 4.65173 a 13.086672,14.478338 0 0 0 9.65496,-4.716536 0.18075333,0.19997504 0 0 1 0.0982,-0.061955 0.18439441,0.20400332 0 0 1 0.19766,0.095367 c 0.0199,0.036952 0.0289,0.079878 0.0256,0.1228593 a 13.124772,14.520489 0 0 1 -2.02964,6.4941512 0.18023318,0.19939958 0 0 0 0.0149,0.217385 0.18036321,0.19954343 0 0 0 0.18517,0.07291 14.06469,15.56036 0 0 0 9.77863,-8.9216208 c 0.0225,-0.039828 0.0534,-0.072908 0.0904,-0.096362 a 0.24733298,0.27363492 0 0 1 0.24304,0 c 0.0369,0.023344 0.068,0.056424 0.0902,0.096362 a 17.828,19.723869 0 0 1 1.74863,12.5785808 z m -24.7026,6.453582 a 3.6180575,4.0028098 0 0 0 -3.54914,4.784289 3.6189678,4.0038169 0 0 0 2.8429,3.145651 3.6181876,4.0029537 0 0 0 4.3239,-3.926995 v -3.737224 a 0.260987,0.28874094 0 0 0 -0.24759,-0.27393 z"
       fill="#702af7"
       id="path1"
       style="display:inline;fill:#464646;fill-opacity:1;stroke-width:0.136778"
       inkscape:label="blazor-logo" /></g></svg>
