<svg viewBox="0 0 1000 1000" xmlns="http://www.w3.org/2000/svg">
    <g id="LogoLayer" class="logo">
        <path id="LogoLetters" class="logo__letters"
              d="m617.25 273.26h134.59c35.011 0 58.352 10.115 58.352 38.122 0 35.784-22.567 45.899-58.352 45.899h-134.59zm-268.77 75.514 108.13 347.69h348.9c98.02 0 194.49-57.561 194.49-168.81 0-81.684-46.673-121.36-96.465-138.48 41.233-22.559 68.458-52.894 68.458-108.91 0-56.787-31.118-139.25-177.37-139.25h-346.85l148.61 408.12h20.864v-88.383h151.71c40.451 0 59.898 17.892 59.898 50.566 0 42.78-31.118 52.894-66.902 52.894h-176.12l-154.11-423.2h-167.26l-264.47 717.98h171.25l96.873-270.76h138.31l-40.71-130.9h-53.664l36.433-108.55"
              fill="#e19f29" fill-rule="evenodd"/>
        <path id="Subtitle" class="logo__subtitle__text"
              d="m518.11 797.86q0-12.288-8.704-29.013l-14.507-27.477q-2.2187-4.2667-2.2187-8.704 0-5.9733 3.4133-5.9733 4.608 0 4.608 14.677v4.2667h16.043q0-18.944-2.2187-25.6-4.2667-13.483-18.773-13.483-10.24 0-16.043 7.3387-5.12 6.656-5.12 17.237 0 13.824 5.8027 24.747l16.043 30.379q4.2667 7.8507 4.2667 13.141 0 5.8027-4.608 5.8027-4.7787 0-5.4613-7.8507v-11.093h-16.043q0 18.261 2.56 25.6 4.608 13.141 19.285 13.141 11.264 0 16.896-8.192 4.7787-6.8267 4.7787-18.944zm49.323 5.8027v-75.435q0-21.845-20.309-21.845-9.8987 0-15.189 5.8027-5.12 5.8027-5.12 16.043v75.435q0 9.8987 5.12 15.701 5.2907 5.632 15.189 5.632 20.309 0 20.309-21.333zm-17.408-5.12q0 6.656-2.9013 6.656-2.9013 0-2.9013-6.656v-63.317q0-8.5334 2.9013-8.5334 2.9013 0 2.9013 8.5334zm59.563 25.429v-20.309h-14.507v-95.744h-18.944v116.05zm48.64-20.309v-95.744h-16.043v92.843q0 5.12-2.9013 5.12t-2.9013-5.12v-92.843h-17.408v95.744q0 9.8987 5.12 15.701 5.2907 5.632 15.189 5.632 18.944 0 18.944-21.333zm44.886-78.336v-17.408h-39.253v17.408h10.24v98.646h18.773v-98.646zm24.576 98.646v-116.05h-18.944v116.05zm49.152-20.309v-75.435q0-21.845-20.309-21.845-9.8987 0-15.189 5.8027-5.12 5.8027-5.12 16.043v75.435q0 9.8987 5.12 15.701 5.2907 5.632 15.189 5.632 20.309 0 20.309-21.333zm-17.408-5.12q0 6.656-2.9013 6.656-2.9013 0-2.9013-6.656v-63.317q0-8.5334 2.9013-8.5334 2.9013 0 2.9013 8.5334zm74.069 25.429v-116.05h-16.043v55.125l-7.8507-55.125h-24.064v116.05h16.043v-59.392l10.069 59.392zm52.053-26.112q0-12.288-8.704-29.013l-14.507-27.477q-2.2187-4.2667-2.2187-8.704 0-5.9733 3.4133-5.9733 4.608 0 4.608 14.677v4.2667h16.043q0-18.944-2.2187-25.6-4.2667-13.483-18.773-13.483-10.24 0-16.043 7.3387-5.12 6.656-5.12 17.237 0 13.824 5.8027 24.747l16.043 30.379q4.2667 7.8507 4.2667 13.141 0 5.8027-4.608 5.8027-4.7787 0-5.4613-7.8507v-11.093h-16.043q0 18.261 2.56 25.6 4.608 13.141 19.285 13.141 11.264 0 16.896-8.192 4.7787-6.8267 4.7787-18.944z"
              fill="currentColor"/>
    </g>
</svg>
