<?xml version="1.0" encoding="UTF-8" standalone="no"?>
<!-- Created with Inkscape (http://www.inkscape.org/) -->

<svg
   width="1000"
   height="1000"
   viewBox="0 0 1000 1000"
   version="1.1"
   id="svg1"
   inkscape:version="1.3.2 (091e20e, 2023-11-25, custom)"
   sodipodi:docname="NuGetIcon.svg"
   inkscape:export-filename="..\ABSolutions.ImageToBase64.BlazorComponent\NuGetIcon.png"
   inkscape:export-xdpi="12.288"
   inkscape:export-ydpi="12.288"
   xmlns:inkscape="http://www.inkscape.org/namespaces/inkscape"
   xmlns:sodipodi="http://sodipodi.sourceforge.net/DTD/sodipodi-0.dtd"
   xmlns="http://www.w3.org/2000/svg"
   xmlns:svg="http://www.w3.org/2000/svg"
   xmlns:rdf="http://www.w3.org/1999/02/22-rdf-syntax-ns#"
   xmlns:cc="http://creativecommons.org/ns#"
   xmlns:dc="http://purl.org/dc/elements/1.1/">
  <title
     id="title1">ABSolutions.ImageToBase64.BlazorComponent NuGet icon</title>
  <sodipodi:namedview
     id="namedview1"
     pagecolor="#505050"
     bordercolor="#ffffff"
     borderopacity="1"
     inkscape:showpageshadow="false"
     inkscape:pageopacity="0"
     inkscape:pagecheckerboard="1"
     inkscape:deskcolor="#d1d1d1"
     inkscape:document-units="px"
     inkscape:zoom="1.0610059"
     inkscape:cx="534.39854"
     inkscape:cy="543.35231"
     inkscape:window-width="2560"
     inkscape:window-height="1369"
     inkscape:window-x="2552"
     inkscape:window-y="-8"
     inkscape:window-maximized="1"
     inkscape:current-layer="layer1"
     inkscape:export-bgcolor="#464646ff" />
  <defs
     id="defs1" />
  <g
     inkscape:label="Layer 1"
     inkscape:groupmode="layer"
     id="layer1">
    <path
       id="rect1"
       style="fill:#e19f29;stroke-width:0.768;fill-opacity:1"
       d="m 734.01953,45.221873 -49.74414,86.750007 65.58594,37.60742 H 50.894531 v 100 H 950.89453 v -100 z"
       inkscape:label="top arrow" />
    <path
       id="path3"
       style="fill:#e19f29;stroke-width:0.768;fill-opacity:1"
       inkscape:label="bottom arrow"
       d="M 50.894531 730.41992 L 50.894531 830.41992 L 749.86133 830.41992 L 684.27539 868.02734 L 734.01953 954.77734 L 950.89453 830.41992 L 950.89453 730.41992 L 50.894531 730.41992 z M 597.87891 746.17578 C 614.78514 746.17578 623.23828 757.7383 623.23828 780.86328 C 623.23828 803.36326 614.78514 814.61328 597.87891 814.61328 C 580.97267 814.61328 572.51953 803.36326 572.51953 780.86328 C 572.51953 757.7383 580.97267 746.17578 597.87891 746.17578 z M 311.45703 747.11328 L 323.83203 747.11328 L 332.03516 747.11328 C 339.03515 747.11328 344.44141 748.55078 348.25391 751.42578 C 352.09765 754.26953 354.01953 758.33204 354.01953 763.61328 C 354.01953 768.14453 352.53515 771.64453 349.56641 774.11328 C 346.88701 776.31321 343.1474 777.46527 338.45703 777.67969 L 338.45703 779.26953 L 340.61328 779.26953 C 346.39453 779.26953 350.84766 780.67578 353.97266 783.48828 C 357.1289 786.30078 358.70703 790.26954 358.70703 795.39453 C 358.70703 801.20703 356.8789 805.70703 353.22266 808.89453 C 349.59766 812.08203 344.4414 813.67578 337.75391 813.67578 L 323.83203 813.67578 L 311.45703 813.67578 L 311.45703 747.11328 z M 377.70703 747.11328 L 390.08203 747.11328 L 390.08203 802.28516 L 423.36328 802.28516 L 423.36328 813.67578 L 377.70703 813.67578 L 377.70703 802.28516 L 377.70703 747.11328 z M 457.78516 747.11328 L 472.97266 747.11328 L 492.19141 813.67578 L 478.83203 813.67578 L 475.56445 801.06641 L 455.19336 801.06641 L 451.92578 813.67578 L 438.56641 813.67578 L 457.78516 747.11328 z M 509.50391 747.11328 L 553.28516 747.11328 L 553.28516 758.50391 L 523.40039 802.28516 L 554.22266 802.28516 L 554.22266 813.67578 L 509.50391 813.67578 L 509.50391 802.28516 L 539.12109 758.50391 L 509.50391 758.50391 L 509.50391 747.11328 z M 641.76953 747.11328 L 654.14453 747.11328 L 665.44141 747.11328 C 672.59765 747.11328 678.12891 748.86328 682.03516 752.36328 C 685.9414 755.86328 687.89453 760.83204 687.89453 767.26953 C 687.89453 774.23827 685.9414 779.66016 682.03516 783.53516 C 680.82911 784.7219 679.44945 785.7031 677.93359 786.52344 L 690.33203 813.67578 L 675.56641 813.67578 L 665.77734 789.27734 C 665.65953 789.2784 665.56011 789.30078 665.44141 789.30078 L 654.14453 789.30078 L 654.14453 813.67578 L 641.76953 813.67578 L 641.76953 747.11328 z M 597.87891 757.98828 C 589.62891 757.98828 585.50391 765.6133 585.50391 780.86328 C 585.50391 795.48827 589.62891 802.80078 597.87891 802.80078 C 606.1289 802.80078 610.25391 795.48827 610.25391 780.86328 C 610.25391 765.6133 606.1289 757.98828 597.87891 757.98828 z M 323.83203 758.50391 L 323.83203 772.80078 L 332.22266 772.80078 C 335.1289 772.80078 337.31641 772.17578 338.78516 770.92578 C 340.28515 769.64453 341.03516 767.76953 341.03516 765.30078 C 341.03516 763.05078 340.23828 761.36328 338.64453 760.23828 C 337.08203 759.08203 334.72265 758.50391 331.56641 758.50391 L 323.83203 758.50391 z M 654.14453 758.50391 L 654.14453 777.91016 L 665.44141 777.91016 C 668.3164 777.91016 670.55078 777.0664 672.14453 775.37891 C 673.73828 773.66016 674.53516 771.26953 674.53516 768.20703 C 674.53516 765.11328 673.73828 762.72265 672.14453 761.03516 C 670.55078 759.34766 668.3164 758.50391 665.44141 758.50391 L 654.14453 758.50391 z M 464.95703 763.37891 L 458.15625 789.62891 L 472.60156 789.62891 L 465.80078 763.37891 L 464.95703 763.37891 z M 323.83203 784.23828 L 323.83203 802.28516 L 335.03516 802.28516 C 338.41015 802.28516 341.03516 801.48828 342.91016 799.89453 C 344.78515 798.30078 345.72266 796.0664 345.72266 793.19141 C 345.72266 790.34766 344.73828 788.14453 342.76953 786.58203 C 340.80078 785.01953 338.0039 784.23828 334.37891 784.23828 L 323.83203 784.23828 z " />
    <text
       xml:space="preserve"
       style="font-size:261.511px;line-height:1;font-family:'Cascadia Mono';-inkscape-font-specification:'Cascadia Mono';fill:#e19f29;stroke-width:1.53229;fill-opacity:1"
       x="150.76718"
       y="416.97015"
       id="text3"
       transform="scale(0.65261917,1.5322872)"
       inkscape:label="Base64__text"><tspan
         sodipodi:role="line"
         id="tspan3"
         x="150.76718"
         y="416.97015"
         style="font-style:normal;font-variant:normal;font-weight:bold;font-stretch:normal;font-size:261.511px;font-family:'Cascadia Mono';-inkscape-font-specification:'Cascadia Mono Bold';fill:#e19f29;stroke-width:1.53229;fill-opacity:1">BASE64==</tspan></text>
  </g>
  <metadata
     id="metadata1">
    <rdf:RDF>
      <cc:Work
         rdf:about="">
        <dc:title>ABSolutions.ImageToBase64.BlazorComponent NuGet icon</dc:title>
        <dc:date>2024-10-05</dc:date>
        <dc:creator>
          <cc:Agent>
            <dc:title>Asif Bacchus</dc:title>
          </cc:Agent>
        </dc:creator>
        <dc:language>EN-CA</dc:language>
        <dc:subject>
          <rdf:Bag>
            <rdf:li>nuget imagetobase64 absolutions blazor dotnet</rdf:li>
          </rdf:Bag>
        </dc:subject>
        <dc:description>Icon for ImageToBase64 .NET Razor class library authored on behalf of A-B Solutions.</dc:description>
        <dc:rights>
          <cc:Agent>
            <dc:title>Attribution Required</dc:title>
          </cc:Agent>
        </dc:rights>
        <cc:license
           rdf:resource="http://creativecommons.org/licenses/by/4.0/" />
      </cc:Work>
      <cc:License
         rdf:about="http://creativecommons.org/licenses/by/4.0/">
        <cc:permits
           rdf:resource="http://creativecommons.org/ns#Reproduction" />
        <cc:permits
           rdf:resource="http://creativecommons.org/ns#Distribution" />
        <cc:requires
           rdf:resource="http://creativecommons.org/ns#Notice" />
        <cc:requires
           rdf:resource="http://creativecommons.org/ns#Attribution" />
        <cc:permits
           rdf:resource="http://creativecommons.org/ns#DerivativeWorks" />
      </cc:License>
    </rdf:RDF>
  </metadata>
</svg>
